<?xml version="1.0" encoding="UTF-8"?>
<svg xmlns="http://www.w3.org/2000/svg" xmlns:xlink="http://www.w3.org/1999/xlink" viewBox="0 0 48 48" width="48px" height="48px">
<g id="surface167777421">
<path style=" stroke:none;fill-rule:nonzero;fill:rgb(72.156864%,100%,84.705883%);fill-opacity:1;" d="M 15 35 C 14.5 35 14 34.800781 13.601562 34.398438 C 12.800781 33.601562 12.800781 32.398438 13.601562 31.601562 L 39.601562 5.601562 C 40.398438 4.800781 41.601562 4.800781 42.398438 5.601562 C 43.199219 6.398438 43.199219 7.601562 42.398438 8.398438 L 16.398438 34.398438 C 16 34.800781 15.5 35 15 35 Z M 15 35 "/>
<path style=" stroke:none;fill-rule:nonzero;fill:rgb(18.039216%,80.000001%,44.313726%);fill-opacity:1;" d="M 14 35 C 13.699219 35 13.5 34.898438 13.300781 34.699219 C 12.898438 34.300781 12.898438 33.699219 13.300781 33.300781 L 40.300781 6.300781 C 40.699219 5.898438 41.300781 5.898438 41.699219 6.300781 C 42.101562 6.699219 42.101562 7.300781 41.699219 7.699219 L 14.699219 34.699219 C 14.5 34.898438 14.300781 35 14 35 Z M 14 35 "/>
<path style=" stroke:none;fill-rule:nonzero;fill:rgb(56.470591%,64.313728%,68.235296%);fill-opacity:1;" d="M 8.300781 38.300781 L 9.699219 39.699219 L 6.398438 43 L 5 41.601562 Z M 8.300781 38.300781 "/>
<path style=" stroke:none;fill-rule:nonzero;fill:rgb(56.470591%,64.313728%,68.235296%);fill-opacity:1;" d="M 14.5 30.699219 L 17.300781 33.5 L 7.800781 43 L 5 40.199219 Z M 14.5 30.699219 "/>
<path style=" stroke:none;fill-rule:nonzero;fill:rgb(21.568628%,27.843139%,30.980393%);fill-opacity:1;" d="M 12.101562 33.101562 L 14.898438 35.898438 L 7.800781 43 L 5 40.199219 Z M 18 27.199219 L 14.101562 31.101562 L 16.898438 33.898438 L 18 32.800781 Z M 18 27.199219 "/>
<path style=" stroke:none;fill-rule:nonzero;fill:rgb(21.568628%,27.843139%,30.980393%);fill-opacity:1;" d="M 11 32 L 14 35 L 12 37 L 9 34 Z M 11 32 "/>
</g>
</svg>
